<svg xmlns="http://www.w3.org/2000/svg" xmlns:xlink="http://www.w3.org/1999/xlink" width="500" zoomAndPan="magnify" viewBox="0 0 375 374.999991" height="500" preserveAspectRatio="xMidYMid meet" version="1.0"><path fill="#b4b4b4" d="M 374.90625 187.96875 C 374.90625 187.875 374.8125 187.875 374.8125 187.78125 C 374.8125 187.6875 374.90625 187.59375 374.8125 187.5 C 374.8125 187.40625 374.625 187.3125 374.625 187.125 C 374.53125 186.933594 374.433594 186.746094 374.246094 186.558594 C 374.152344 186.371094 374.058594 186.277344 373.964844 186.183594 C 373.777344 186.089844 373.589844 185.996094 373.398438 185.898438 C 373.210938 185.898438 373.117188 185.710938 372.929688 185.617188 L 233.234375 159.222656 L 265.417969 112.078125 C 265.417969 111.980469 265.417969 111.792969 265.511719 111.792969 C 265.511719 111.605469 265.605469 111.511719 265.605469 111.324219 C 265.605469 111.230469 265.605469 111.136719 265.511719 111.136719 C 265.605469 111.042969 265.511719 110.945312 265.511719 110.851562 C 265.417969 110.664062 265.511719 110.570312 265.417969 110.476562 C 265.417969 110.382812 265.324219 110.382812 265.324219 110.382812 C 265.230469 110.382812 265.230469 110.382812 265.230469 110.289062 C 265.136719 110.289062 265.136719 110.289062 265.136719 110.195312 C 265.039062 110.195312 265.039062 110.101562 265.039062 110.101562 C 264.945312 110.101562 264.851562 110.101562 264.757812 110.007812 C 264.664062 110.007812 264.570312 109.910156 264.382812 109.910156 L 263.957031 109.910156 C 263.863281 109.910156 263.769531 110.007812 263.582031 110.007812 C 263.582031 110.101562 263.394531 110.101562 263.300781 110.101562 L 216.15625 142.285156 L 189.617188 2.304688 C 189.617188 2.210938 189.429688 2.117188 189.429688 1.929688 C 189.335938 1.742188 189.242188 1.550781 189.050781 1.363281 C 188.957031 1.175781 188.863281 1.175781 188.769531 0.988281 C 188.582031 0.894531 188.394531 0.800781 188.207031 0.800781 C 188.015625 0.707031 188.015625 0.515625 187.828125 0.515625 C 187.734375 0.421875 187.640625 0.515625 187.546875 0.515625 C 187.453125 0.515625 187.453125 0.421875 187.359375 0.421875 C 187.265625 0.421875 187.171875 0.515625 187.171875 0.515625 C 187.078125 0.515625 186.980469 0.421875 186.886719 0.515625 C 186.699219 0.515625 186.605469 0.707031 186.511719 0.800781 C 186.230469 0.800781 186.042969 0.894531 185.945312 0.988281 C 185.757812 1.175781 185.664062 1.175781 185.570312 1.363281 C 185.476562 1.550781 185.382812 1.742188 185.289062 1.929688 C 185.195312 2.117188 185.101562 2.210938 185.007812 2.304688 L 158.609375 142.09375 L 111.371094 109.914062 C 111.371094 109.914062 111.277344 109.914062 111.183594 109.816406 C 111.089844 109.816406 110.898438 109.722656 110.804688 109.722656 C 110.617188 109.722656 110.617188 109.722656 110.523438 109.722656 C 110.429688 109.722656 110.242188 109.816406 110.148438 109.914062 C 110.054688 109.914062 110.054688 109.914062 109.960938 109.914062 C 109.863281 109.914062 109.863281 110.007812 109.769531 110.007812 C 109.769531 110.101562 109.769531 110.101562 109.675781 110.101562 L 109.675781 110.195312 C 109.582031 110.195312 109.488281 110.195312 109.488281 110.289062 L 109.488281 110.570312 C 109.394531 110.664062 109.300781 110.851562 109.300781 110.851562 L 109.300781 111.230469 C 109.394531 111.324219 109.394531 111.417969 109.488281 111.605469 C 109.488281 111.699219 109.488281 111.792969 109.488281 111.792969 L 141.671875 159.035156 L 1.882812 185.429688 C 1.789062 185.523438 1.695312 185.710938 1.503906 185.710938 C 1.316406 185.804688 1.128906 185.898438 0.941406 185.996094 C 0.753906 186.089844 0.753906 186.183594 0.660156 186.371094 C 0.46875 186.558594 0.375 186.746094 0.28125 186.933594 C 0.28125 187.125 0.09375 187.21875 0.09375 187.3125 C 0 187.40625 0.09375 187.5 0.09375 187.59375 C 0.09375 187.6875 0 187.6875 0 187.78125 C 0 187.875 0.09375 187.875 0.09375 187.96875 C 0.09375 188.066406 0 188.160156 0.09375 188.253906 C 0.09375 188.441406 0.28125 188.535156 0.28125 188.722656 C 0.375 188.910156 0.46875 189.101562 0.660156 189.195312 C 0.660156 189.289062 0.753906 189.382812 0.847656 189.476562 C 1.035156 189.664062 1.316406 189.757812 1.550781 189.851562 C 1.742188 189.851562 1.835938 190.039062 1.929688 190.136719 L 141.71875 216.53125 L 109.535156 263.675781 L 109.535156 263.957031 C 109.441406 264.054688 109.441406 264.242188 109.347656 264.335938 C 109.347656 264.429688 109.347656 264.429688 109.441406 264.617188 C 109.441406 264.710938 109.441406 264.898438 109.535156 264.992188 C 109.535156 265.089844 109.535156 265.183594 109.535156 265.183594 C 109.535156 265.277344 109.628906 265.277344 109.722656 265.371094 C 109.722656 265.371094 109.722656 265.371094 109.722656 265.464844 L 109.816406 265.464844 C 109.910156 265.558594 109.910156 265.652344 110.007812 265.652344 C 110.007812 265.652344 110.195312 265.652344 110.195312 265.746094 C 110.382812 265.746094 110.476562 265.839844 110.570312 265.746094 C 110.664062 265.839844 110.664062 265.839844 110.757812 265.839844 C 110.945312 265.839844 111.136719 265.746094 111.230469 265.652344 L 111.511719 265.652344 L 158.65625 233.46875 L 185.054688 373.257812 C 185.148438 373.449219 185.242188 373.542969 185.335938 373.730469 C 185.429688 373.917969 185.523438 374.105469 185.617188 374.199219 C 185.710938 374.292969 185.710938 374.386719 185.804688 374.484375 C 185.996094 374.671875 186.277344 374.765625 186.605469 374.859375 C 186.792969 374.859375 186.792969 375.046875 186.980469 375.046875 C 187.171875 375.140625 187.265625 375.140625 187.453125 375.140625 C 187.546875 375.140625 187.734375 375.140625 187.921875 375.046875 C 188.015625 375.046875 188.113281 374.859375 188.300781 374.859375 C 188.582031 374.765625 188.769531 374.671875 189.003906 374.484375 C 189.101562 374.386719 189.195312 374.292969 189.195312 374.199219 C 189.382812 374.105469 189.476562 373.917969 189.476562 373.730469 C 189.570312 373.542969 189.757812 373.449219 189.757812 373.257812 L 216.25 233.46875 L 263.394531 265.652344 C 263.582031 265.652344 263.675781 265.652344 263.769531 265.746094 C 263.863281 265.746094 263.957031 265.839844 264.050781 265.839844 C 264.148438 265.839844 264.148438 265.839844 264.242188 265.839844 C 264.429688 265.839844 264.617188 265.746094 264.710938 265.652344 L 264.992188 265.652344 C 265.085938 265.558594 265.085938 265.558594 265.183594 265.464844 C 265.277344 265.371094 265.277344 265.371094 265.371094 265.183594 C 265.371094 265.183594 265.371094 265.089844 265.464844 264.992188 C 265.464844 264.804688 265.558594 264.710938 265.558594 264.523438 C 265.558594 264.429688 265.558594 264.429688 265.464844 264.335938 C 265.558594 264.242188 265.464844 264.148438 265.464844 264.054688 C 265.371094 263.957031 265.464844 263.769531 265.371094 263.769531 L 233.1875 216.53125 L 372.882812 190.136719 C 373.070312 190.039062 373.164062 189.851562 373.351562 189.851562 C 373.542969 189.757812 373.824219 189.664062 374.058594 189.476562 C 374.152344 189.382812 374.246094 189.289062 374.246094 189.195312 C 374.433594 189.101562 374.433594 188.910156 374.53125 188.722656 C 374.625 188.535156 374.8125 188.441406 374.8125 188.253906 C 374.90625 188.160156 374.8125 188.066406 374.8125 187.96875 C 374.8125 188.066406 374.90625 188.066406 374.90625 187.96875 Z M 156.917969 214.789062 L 144.402344 212.4375 L 28.183594 190.417969 L 181.382812 190.417969 Z M 184.816406 160.070312 L 184.816406 182.089844 L 160.445312 157.621094 L 162.796875 145.105469 L 184.816406 28.890625 Z M 211.730469 230.835938 L 189.710938 347.050781 L 189.710938 193.851562 L 214.085938 218.320312 Z M 215.167969 185.523438 L 193.144531 185.523438 L 217.613281 161.152344 L 230.128906 163.503906 L 346.34375 185.523438 Z M 215.167969 185.523438 " fill-opacity="1" fill-rule="nonzero"/><path fill="#b4b4b4" d="M 167.316406 42.109375 L 169.292969 32.042969 C 97.113281 40.277344 39.664062 97.679688 31.335938 169.902344 L 41.40625 168.019531 C 50.296875 102.761719 102.054688 51.003906 167.316406 42.109375 Z M 167.316406 42.109375 " fill-opacity="1" fill-rule="nonzero"/><path fill="#b4b4b4" d="M 207.121094 333.828125 L 205.144531 343.898438 C 277.460938 335.710938 335.007812 278.261719 343.191406 205.992188 L 333.125 207.921875 C 324.230469 273.179688 272.476562 325.03125 207.121094 333.828125 Z M 207.121094 333.828125 " fill-opacity="1" fill-rule="nonzero"/><path fill="#b4b4b4" d="M 333.125 168.019531 L 343.191406 169.996094 C 335.007812 97.773438 277.460938 40.230469 205.285156 32.042969 L 207.167969 42.109375 C 272.476562 50.910156 324.230469 102.761719 333.125 168.019531 Z M 333.125 168.019531 " fill-opacity="1" fill-rule="nonzero"/><path fill="#b4b4b4" d="M 41.40625 207.828125 L 31.335938 205.945312 C 39.523438 278.167969 97.066406 335.710938 169.242188 343.898438 L 167.316406 333.828125 C 102.054688 324.9375 50.203125 273.179688 41.40625 207.828125 Z M 41.40625 207.828125 " fill-opacity="1" fill-rule="nonzero"/></svg>