<?xml version="1.0" encoding="UTF-8" standalone="no"?>
<!-- Created with Inkscape (http://www.inkscape.org/) -->

<svg
   width="125.00001mm"
   height="269.99911mm"
   viewBox="0 0 125.00001 269.99911"
   version="1.1"
   id="svg5343"
   xmlns:inkscape="http://www.inkscape.org/namespaces/inkscape"
   xmlns:sodipodi="http://sodipodi.sourceforge.net/DTD/sodipodi-0.dtd"
   xmlns="http://www.w3.org/2000/svg"
   xmlns:svg="http://www.w3.org/2000/svg">
  <sodipodi:namedview
     id="namedview5345"
     pagecolor="#ffffff"
     bordercolor="#666666"
     borderopacity="1.0"
     inkscape:showpageshadow="2"
     inkscape:pageopacity="0.0"
     inkscape:pagecheckerboard="0"
     inkscape:deskcolor="#d1d1d1"
     inkscape:document-units="mm"
     showgrid="false" />
  <defs
     id="defs5340" />
  <g
     inkscape:label="Layer 1"
     inkscape:groupmode="layer"
     id="layer1"
     transform="translate(0.00355142)">
    <g
       id="g5933">
      <path
         id="path5516"
         style="fill:#000000;stroke-width:0.515234;stroke-linecap:round;stroke-linejoin:round;paint-order:fill markers stroke;stop-color:#000000"
         inkscape:transform-center-y="-2.4999972"
         d="M 12.496449,0 8.4339613,12.187463 -0.00355142,15 8.4339613,17.812537 12.496449,29.999899 16.558934,17.812537 24.996449,15 16.558934,12.187463 Z" />
      <path
         id="path5586"
         style="fill:#000000;stroke-width:0.515234;stroke-linecap:round;stroke-linejoin:round;paint-order:fill markers stroke;stop-color:#000000"
         inkscape:transform-center-y="-2.4999972"
         d="m 12.496449,29.999899 -4.0624877,12.187463 -8.43751272,2.812537 8.43751272,2.812537 4.0624877,12.187362 4.062485,-12.187362 8.437515,-2.812537 -8.437515,-2.812537 z" />
      <path
         id="path5588"
         style="fill:#000000;stroke-width:0.515234;stroke-linecap:round;stroke-linejoin:round;paint-order:fill markers stroke;stop-color:#000000"
         inkscape:transform-center-y="-2.4999972"
         d="m 12.496449,59.999798 -4.0624877,12.187463 -8.43751272,2.812537 8.43751272,2.812537 4.0624877,12.187362 4.062485,-12.187362 8.437515,-2.812537 -8.437515,-2.812537 z" />
      <path
         id="path5590"
         style="fill:#000000;stroke-width:0.515234;stroke-linecap:round;stroke-linejoin:round;paint-order:fill markers stroke;stop-color:#000000"
         inkscape:transform-center-y="-2.4999972"
         d="m 12.496449,89.999697 -4.0624877,12.187463 -8.43751272,2.81254 8.43751272,2.81253 4.0624877,12.18737 4.062485,-12.18737 8.437515,-2.81253 -8.437515,-2.81254 z" />
      <path
         id="path5592"
         style="fill:#000000;stroke-width:0.515234;stroke-linecap:round;stroke-linejoin:round;paint-order:fill markers stroke;stop-color:#000000"
         inkscape:transform-center-y="-2.4999972"
         d="m 12.496449,119.9996 -4.0624877,12.18746 -8.43751272,2.81254 8.43751272,2.81254 4.0624877,12.18736 4.062485,-12.18736 8.437515,-2.81254 -8.437515,-2.81254 z" />
      <path
         id="path5600"
         style="fill:#000000;stroke-width:0.515234;stroke-linecap:round;stroke-linejoin:round;paint-order:fill markers stroke;stop-color:#000000"
         inkscape:transform-center-y="-2.4999972"
         d="m 12.496449,149.9995 -4.0624877,12.18746 -8.43751272,2.81254 8.43751272,2.81254 4.0624877,12.18736 4.062485,-12.18736 8.437515,-2.81254 -8.437515,-2.81254 z" />
      <path
         id="path5602"
         style="fill:#000000;stroke-width:0.515234;stroke-linecap:round;stroke-linejoin:round;paint-order:fill markers stroke;stop-color:#000000"
         inkscape:transform-center-y="-2.4999972"
         d="m 12.496449,179.9994 -4.0624877,12.18746 -8.43751272,2.81254 8.43751272,2.81254 4.0624877,12.18736 4.062485,-12.18736 8.437515,-2.81254 -8.437515,-2.81254 z" />
      <path
         id="path5604"
         style="fill:#000000;stroke-width:0.515234;stroke-linecap:round;stroke-linejoin:round;paint-order:fill markers stroke;stop-color:#000000"
         inkscape:transform-center-y="-2.4999972"
         d="m 12.496449,209.9993 -4.0624877,12.18746 -8.43751272,2.81254 8.43751272,2.81254 4.0624877,12.18736 4.062485,-12.18736 8.437515,-2.81254 -8.437515,-2.81254 z" />
      <path
         id="path5606"
         style="fill:#000000;stroke-width:0.515234;stroke-linecap:round;stroke-linejoin:round;paint-order:fill markers stroke;stop-color:#000000"
         inkscape:transform-center-y="-2.4999972"
         d="m 12.496449,239.9992 -4.0624877,12.18746 -8.43751272,2.81254 8.43751272,2.81254 4.0624877,12.18736 4.062485,-12.18736 8.437515,-2.81254 -8.437515,-2.81254 z" />
      <path
         id="path5630"
         style="fill:#000000;stroke-width:0.515234;stroke-linecap:round;stroke-linejoin:round;paint-order:fill markers stroke;stop-color:#000000"
         inkscape:transform-center-y="-2.4999972"
         d="m 37.496449,29.999899 -4.062487,12.187463 -8.437513,2.812537 8.437513,2.812537 4.062487,12.187362 4.062485,-12.187362 8.437515,-2.812537 -8.437515,-2.812537 z" />
      <path
         id="path5632"
         style="fill:#000000;stroke-width:0.515234;stroke-linecap:round;stroke-linejoin:round;paint-order:fill markers stroke;stop-color:#000000"
         inkscape:transform-center-y="-2.4999972"
         d="m 37.496449,59.999798 -4.062487,12.187463 -8.437513,2.812537 8.437513,2.812537 4.062487,12.187362 4.062485,-12.187362 8.437515,-2.812537 -8.437515,-2.812537 z" />
      <path
         id="path5652"
         style="fill:#000000;stroke-width:0.515234;stroke-linecap:round;stroke-linejoin:round;paint-order:fill markers stroke;stop-color:#000000"
         inkscape:transform-center-y="-2.4999972"
         d="m 62.496449,59.999798 -4.062487,12.187463 -8.437513,2.812537 8.437513,2.812537 4.062487,12.187362 4.062485,-12.187362 8.437515,-2.812537 -8.437515,-2.812537 z" />
      <path
         id="path5634"
         style="fill:#000000;stroke-width:0.515234;stroke-linecap:round;stroke-linejoin:round;paint-order:fill markers stroke;stop-color:#000000"
         inkscape:transform-center-y="-2.4999972"
         d="m 37.496449,89.999697 -4.062487,12.187463 -8.437513,2.81254 8.437513,2.81253 4.062487,12.18737 4.062485,-12.18737 8.437515,-2.81253 -8.437515,-2.81254 z" />
      <path
         id="path5654"
         style="fill:#000000;stroke-width:0.515234;stroke-linecap:round;stroke-linejoin:round;paint-order:fill markers stroke;stop-color:#000000"
         inkscape:transform-center-y="-2.4999972"
         d="m 62.496449,89.999697 -4.062487,12.187463 -8.437513,2.81254 8.437513,2.81253 4.062487,12.18737 4.062485,-12.18737 8.437515,-2.81253 -8.437515,-2.81254 z" />
      <path
         id="path5674"
         style="fill:#000000;stroke-width:0.515234;stroke-linecap:round;stroke-linejoin:round;paint-order:fill markers stroke;stop-color:#000000"
         inkscape:transform-center-y="-2.4999972"
         d="m 87.496449,89.999697 -4.062487,12.187463 -8.437513,2.81254 8.437513,2.81253 4.062487,12.18737 4.062485,-12.18737 8.437515,-2.81253 -8.437515,-2.81254 z" />
      <path
         id="path5636"
         style="fill:#000000;stroke-width:0.515234;stroke-linecap:round;stroke-linejoin:round;paint-order:fill markers stroke;stop-color:#000000"
         inkscape:transform-center-y="-2.4999972"
         d="m 37.496449,119.9996 -4.062487,12.18746 -8.437513,2.81254 8.437513,2.81254 4.062487,12.18736 4.062485,-12.18736 8.437515,-2.81254 -8.437515,-2.81254 z" />
      <path
         id="path5656"
         style="fill:#000000;stroke-width:0.515234;stroke-linecap:round;stroke-linejoin:round;paint-order:fill markers stroke;stop-color:#000000"
         inkscape:transform-center-y="-2.4999972"
         d="m 62.496449,119.9996 -4.062487,12.18746 -8.437513,2.81254 8.437513,2.81254 4.062487,12.18736 4.062485,-12.18736 8.437515,-2.81254 -8.437515,-2.81254 z" />
      <path
         id="path5676"
         style="fill:#000000;stroke-width:0.515234;stroke-linecap:round;stroke-linejoin:round;paint-order:fill markers stroke;stop-color:#000000"
         inkscape:transform-center-y="-2.4999972"
         d="m 87.496449,119.9996 -4.062487,12.18746 -8.437513,2.81254 8.437513,2.81254 4.062487,12.18736 4.062485,-12.18736 8.437515,-2.81254 -8.437515,-2.81254 z" />
      <path
         id="path5696"
         style="fill:#000000;stroke-width:0.515234;stroke-linecap:round;stroke-linejoin:round;paint-order:fill markers stroke;stop-color:#000000"
         inkscape:transform-center-y="-2.4999972"
         d="m 112.49645,119.9996 -4.06249,12.18746 -8.437511,2.81254 8.437511,2.81254 4.06249,12.18736 4.06248,-12.18736 8.43752,-2.81254 -8.43752,-2.81254 z" />
      <path
         id="path5638"
         style="fill:#000000;stroke-width:0.515234;stroke-linecap:round;stroke-linejoin:round;paint-order:fill markers stroke;stop-color:#000000"
         inkscape:transform-center-y="-2.4999972"
         d="m 37.496449,149.9995 -4.062487,12.18746 -8.437513,2.81254 8.437513,2.81254 4.062487,12.18736 4.062485,-12.18736 8.437515,-2.81254 -8.437515,-2.81254 z" />
      <path
         id="path5658"
         style="fill:#000000;stroke-width:0.515234;stroke-linecap:round;stroke-linejoin:round;paint-order:fill markers stroke;stop-color:#000000"
         inkscape:transform-center-y="-2.4999972"
         d="m 62.496449,149.9995 -4.062487,12.18746 -8.437513,2.81254 8.437513,2.81254 4.062487,12.18736 4.062485,-12.18736 8.437515,-2.81254 -8.437515,-2.81254 z" />
      <path
         id="path5678"
         style="fill:#000000;stroke-width:0.515234;stroke-linecap:round;stroke-linejoin:round;paint-order:fill markers stroke;stop-color:#000000"
         inkscape:transform-center-y="-2.4999972"
         d="m 87.496449,149.9995 -4.062487,12.18746 -8.437513,2.81254 8.437513,2.81254 4.062487,12.18736 4.062485,-12.18736 8.437515,-2.81254 -8.437515,-2.81254 z" />
      <path
         id="path5640"
         style="fill:#000000;stroke-width:0.515234;stroke-linecap:round;stroke-linejoin:round;paint-order:fill markers stroke;stop-color:#000000"
         inkscape:transform-center-y="-2.4999972"
         d="m 37.496449,179.9994 -4.062487,12.18746 -8.437513,2.81254 8.437513,2.81254 4.062487,12.18736 4.062485,-12.18736 8.437515,-2.81254 -8.437515,-2.81254 z" />
      <path
         id="path5660"
         style="fill:#000000;stroke-width:0.515234;stroke-linecap:round;stroke-linejoin:round;paint-order:fill markers stroke;stop-color:#000000"
         inkscape:transform-center-y="-2.4999972"
         d="m 62.496449,179.9994 -4.062487,12.18746 -8.437513,2.81254 8.437513,2.81254 4.062487,12.18736 4.062485,-12.18736 8.437515,-2.81254 -8.437515,-2.81254 z" />
      <path
         id="path5642"
         style="fill:#000000;stroke-width:0.515234;stroke-linecap:round;stroke-linejoin:round;paint-order:fill markers stroke;stop-color:#000000"
         inkscape:transform-center-y="-2.4999972"
         d="m 37.496449,209.9993 -4.062487,12.18746 -8.437513,2.81254 8.437513,2.81254 4.062487,12.18736 4.062485,-12.18736 8.437515,-2.81254 -8.437515,-2.81254 z" />
    </g>
  </g>
</svg>
