<?xml version="1.0" encoding="UTF-8" standalone="no"?>
<!-- Created with Inkscape (http://www.inkscape.org/) -->

<svg
   width="67.973946mm"
   height="67.941193mm"
   viewBox="0 0 67.973946 67.941193"
   version="1.1"
   id="svg5"
   xml:space="preserve"
   inkscape:version="1.2.2 (b0a8486541, 2022-12-01)"
   sodipodi:docname="clearpathconsulting.svg"
   xmlns:inkscape="http://www.inkscape.org/namespaces/inkscape"
   xmlns:sodipodi="http://sodipodi.sourceforge.net/DTD/sodipodi-0.dtd"
   xmlns="http://www.w3.org/2000/svg"
   xmlns:svg="http://www.w3.org/2000/svg"><sodipodi:namedview
     id="namedview7"
     pagecolor="#ffffff"
     bordercolor="#666666"
     borderopacity="1.0"
     inkscape:showpageshadow="2"
     inkscape:pageopacity="0.0"
     inkscape:pagecheckerboard="0"
     inkscape:deskcolor="#d1d1d1"
     inkscape:document-units="mm"
     showgrid="false"
     inkscape:zoom="0.61765451"
     inkscape:cx="331.90076"
     inkscape:cy="582.85011"
     inkscape:window-width="1410"
     inkscape:window-height="903"
     inkscape:window-x="0"
     inkscape:window-y="0"
     inkscape:window-maximized="1"
     inkscape:current-layer="layer1" /><defs
     id="defs2" /><g
     inkscape:label="Layer 1"
     inkscape:groupmode="layer"
     id="layer1"
     transform="translate(-18.173377,-204.22665)"><rect
       style="fill:#405a6f;stroke-width:6.00001;stroke-linecap:square;paint-order:fill markers stroke;stop-color:#000000"
       id="rect520"
       width="113.46819"
       height="297.37515"
       x="0.49764183"
       y="0.38024941" /><g
       id="g2167"
       transform="translate(-103.3938,21.016164)"
       style="fill:#ffffff"
       inkscape:export-filename="../ClearPath/logo_white_192.png"
       inkscape:export-xdpi="71.745132"
       inkscape:export-ydpi="71.745132"><path
         style="color:#000000;fill:#ffffff;stroke-linecap:square;stroke-linejoin:bevel;-inkscape-stroke:none;paint-order:fill markers stroke"
         d="m 153.00391,183.30469 c -6.51726,0.48486 -12.9611,2.84456 -18.47071,7.18164 -14.69228,11.56553 -17.2851,32.89433 -5.79101,47.64258 11.17184,14.33476 31.57538,17.17021 46.30664,6.83593 l 0.11914,0.14844 1.41211,-1.13476 1.50976,-1.16407 -0.11718,-0.15234 c 13.50391,-11.89265 15.5407,-32.38986 4.23046,-46.61524 -7.27293,-9.14748 -18.33712,-13.55029 -29.19921,-12.74218 z m 0.33984,4.34375 c 9.45572,-0.7103 19.07451,3.12986 25.42969,11.12304 10.16828,12.78909 8.09896,31.32641 -4.64063,41.55664 l -0.18554,0.1504 -0.26758,0.20507 c -12.93578,9.98101 -31.44071,7.6411 -41.48438,-5.24609 -10.04366,-12.88719 -7.79141,-31.40367 5.04688,-41.50977 4.81436,-3.78978 10.42813,-5.85311 16.10156,-6.27929 z"
         id="path2163" /><path
         id="path2165"
         style="fill:#ffffff;stroke-width:8.22621;stroke-linecap:square;paint-order:fill markers stroke;stop-color:#000000"
         inkscape:transform-center-x="-6.6857541"
         inkscape:transform-center-y="-19.855033"
         d="m 169.60671,193.29142 -28.10513,21.47291 7.07055,4.08218 -6.55081,22.22422 15.97178,-16.78501 7.07055,4.08218 z m -10.07303,17.447 -1.24096,9.58152 -6.43594,-3.71579 z" /></g></g></svg>
